<?xml version="1.0" encoding="UTF-8" standalone="no"?><!DOCTYPE svg PUBLIC "-//W3C//DTD SVG 1.1//EN" "http://www.w3.org/Graphics/SVG/1.1/DTD/svg11.dtd"><svg width="100%" height="100%" viewBox="0 0 1920 1080" version="1.1" xmlns="http://www.w3.org/2000/svg" xmlns:xlink="http://www.w3.org/1999/xlink" xml:space="preserve" xmlns:serif="http://www.serif.com/" style="fill-rule:evenodd;clip-rule:evenodd;stroke-linejoin:round;stroke-miterlimit:1.41421;"><g transform="matrix(1,0,0,1,-3.49282,50.6592)"><g transform="matrix(0.934704,-0.355426,0.355426,0.934704,-63.4334,301.719)"><text x="789.463px" y="323.504px" style="font-family:'LucidaGrande', 'Lucida Grande', sans-serif;font-weight:500;font-size:96px;stroke:#000;stroke-width:0.65px;">H</text></g><g transform="matrix(0.993191,-0.116494,0.116494,0.993191,-29.0103,101.745)"><text x="855.913px" y="299.053px" style="font-family:'LucidaGrande', 'Lucida Grande', sans-serif;font-weight:500;font-size:96px;stroke:#000;stroke-width:0.65px;">o</text></g><g transform="matrix(0.986828,0.161774,-0.161774,0.986828,58.9672,-144.196)"><text x="914.952px" y="290.004px" style="font-family:'LucidaGrande', 'Lucida Grande', sans-serif;font-weight:500;font-size:96px;stroke:#000;stroke-width:0.65px;">m</text></g><g transform="matrix(0.908196,0.418545,-0.418545,0.908196,220.59,-391.67)"><text x="1003.13px" y="307.013px" style="font-family:'LucidaGrande', 'Lucida Grande', sans-serif;font-weight:500;font-size:96px;stroke:#000;stroke-width:0.65px;">e</text></g></g><g id="home"><circle cx="913.149" cy="599.997" r="253.44" style="fill-opacity:0;"/><path d="M841.839,627.816c0.05,0.049 0.089,0.099 0.139,0.148c-0.05,0.029 -0.089,0.049 -0.139,0.079c-0.049,-0.05 -0.089,-0.099 -0.139,-0.149c0.05,-0.018 0.09,-0.048 0.139,-0.078Z" style="fill:#fff;fill-rule:nonzero;"/><path d="M984.627,627.856c-0.049,0.059 -0.109,0.129 -0.168,0.188c-0.059,-0.04 -0.119,-0.07 -0.178,-0.099c0.059,-0.059 0.119,-0.129 0.178,-0.188c0.059,0.029 0.109,0.069 0.168,0.099Z" style="fill:#fff;fill-rule:nonzero;"/><path d="M995.553,712.075l-164.808,0c-6.637,0 -12.017,-5.38 -12.017,-12.017l0,-120.696l188.841,0l0,120.696c0.001,6.637 -5.38,12.017 -12.016,12.017Z" style="fill:#fff;fill-rule:nonzero;"/><path d="M1031.57,596.543c5.013,5.013 1.429,13.582 -5.66,13.534l-111.874,-0.757l-112.241,-0.759c-7.037,-0.048 -10.528,-8.558 -5.552,-13.534l111.299,-111.3c3.096,-3.096 8.116,-3.096 11.212,0l112.816,112.816Z" style="fill:#fff;fill-rule:nonzero;"/></g></svg>