<?xml version="1.0" ?><svg id="Layer_1" style="enable-background:new 0 0 24 24;" version="1.1" viewBox="0 0 24 24" xml:space="preserve" xmlns="http://www.w3.org/2000/svg" xmlns:xlink="http://www.w3.org/1999/xlink"><g id="XMLID_1360_"><path d="   M12.5,18.5h-1c-0.552,0-1-0.448-1-1l0,0c0-0.552,0.448-1,1-1h1c0.552,0,1,0.448,1,1l0,0C13.5,18.052,13.052,18.5,12.5,18.5z" id="XMLID_1466_" style="fill:none;stroke:#303C42;stroke-linecap:round;stroke-linejoin:round;stroke-miterlimit:10;"/><line id="XMLID_1465_" style="fill:none;stroke:#303C42;stroke-linecap:round;stroke-linejoin:round;stroke-miterlimit:10;" x1="10.5" x2="6.499" y1="17.5" y2="17.5"/><line id="XMLID_1361_" style="fill:none;stroke:#303C42;stroke-linecap:round;stroke-linejoin:round;stroke-miterlimit:10;" x1="13.5" x2="17.409" y1="17.5" y2="17.5"/><path d="   M5.977,19.069C3.857,19.528,2.5,20.222,2.5,21c0,1.381,4.253,2.5,9.5,2.5s9.5-1.119,9.5-2.5c0-0.784-1.378-1.482-3.524-1.94" id="XMLID_1362_" style="fill:none;stroke:#303C42;stroke-linecap:round;stroke-linejoin:round;stroke-miterlimit:10;"/><polyline id="XMLID_1363_" points="   5.5,20.5 9.5,8.5 15.5,0.5 14.5,9.5 18.5,20.5  " style="fill:none;stroke:#303C42;stroke-linecap:round;stroke-linejoin:round;stroke-miterlimit:10;"/></g></svg>